<svg xmlns="http://www.w3.org/2000/svg" xmlns:xlink="http://www.w3.org/1999/xlink" xmlns:lucid="lucid" width="1140" height="1060"><g transform="translate(-365.20000000000005 -20)" lucid:page-tab-id="0_0"><path d="M858.7 140h153v80.7h-153z" stroke="#0c7cba" stroke-width="2" fill="#83bbe5"/><use xlink:href="#a" transform="matrix(1,0,0,1,863.7048678720446,145) translate(3.5999999999999943 38.80625)"/><use xlink:href="#b" transform="matrix(1,0,0,1,863.7048678720446,145) translate(88.5 38.80625)"/><path d="M858.7 285.26h153v80.7h-153z" stroke="#19967d" stroke-width="2" fill="#5abaa7"/><use xlink:href="#c" transform="matrix(1,0,0,1,863.7048678720446,290.2631578947368) translate(64 38.80625)"/><path d="M1092.78 285.26h153v80.7h-153z" stroke="#19967d" stroke-width="2" fill="#5abaa7"/><use xlink:href="#d" transform="matrix(1,0,0,1,1097.7799721835884,290.2631578947368) translate(7.625 38.80625)"/><use xlink:href="#e" transform="matrix(1,0,0,1,1097.7799721835884,290.2631578947368) translate(105.47500000000001 38.80625)"/><path d="M633.8 285.26h153v80.7h-153z" stroke="#19967d" stroke-width="2" fill="#5abaa7"/><use xlink:href="#d" transform="matrix(1,0,0,1,638.8091794158554,290.2631578947368) translate(7.625 38.80625)"/><use xlink:href="#e" transform="matrix(1,0,0,1,638.8091794158554,290.2631578947368) translate(105.47500000000001 38.80625)"/><path d="M935.2 222.7v30.28H710.3v12.78" stroke="#000" stroke-width="2" fill="none"/><path d="M936.2 222.73h-2v-1.03h2z"/><path d="M710.3 281.03l-4.63-14.27h9.27z" stroke="#000" stroke-width="2"/><path d="M935.2 222.7v43.06" stroke="#000" stroke-width="2" fill="none"/><path d="M936.2 222.73h-2v-1.03h2z"/><path d="M935.2 281.03l-4.64-14.27h9.28z" stroke="#000" stroke-width="2"/><path d="M935.2 222.7v30.28h234.08v12.78" stroke="#000" stroke-width="2" fill="none"/><path d="M936.2 222.73h-2v-1.03h2z"/><path d="M1169.28 281.03l-4.64-14.27h9.27z" stroke="#000" stroke-width="2"/><path d="M858.7 430.53h153v80.7h-153z" stroke="#0c7cba" stroke-width="2" fill="#83bbe5"/><use xlink:href="#f" transform="matrix(1,0,0,1,863.7048678720446,435.5263157894737) translate(10.574999999999996 38.80625)"/><use xlink:href="#g" transform="matrix(1,0,0,1,863.7048678720446,435.5263157894737) translate(68.475 38.80625)"/><path d="M935.2 367.96v43.06" stroke="#000" stroke-width="2" fill="none"/><path d="M936.2 368h-2v-1.04h2z"/><path d="M935.2 426.3L930.56 412h9.28z" stroke="#000" stroke-width="2"/><path d="M710.3 367.96v30.3h224.9V411" stroke="#000" stroke-width="2" fill="none"/><path d="M711.3 368h-2v-1.04h2z"/><path d="M935.2 426.3L930.56 412h9.28z" stroke="#000" stroke-width="2"/><path d="M1169.28 367.96v30.3H935.2V411" stroke="#000" stroke-width="2" fill="none"/><path d="M1170.28 368h-2v-1.04h2z"/><path d="M935.2 426.3L930.56 412h9.28z" stroke="#000" stroke-width="2"/><path d="M858.7 575.8h153v80.7h-153z" stroke="#ef8d22" stroke-width="2" fill="#ffc374"/><use xlink:href="#c" transform="matrix(1,0,0,1,863.7048678720446,580.7894736842105) translate(64 38.80625)"/><path d="M1198.34 575.8h153v80.7h-153z" stroke="#ef8d22" stroke-width="2" fill="#ffc374"/><use xlink:href="#h" transform="matrix(1,0,0,1,1203.343254520167,580.7894736842105) translate(35.074999999999996 38.80625)"/><path d="M519.07 575.8h153v80.7h-153z" stroke="#ef8d22" stroke-width="2" fill="#ffc374"/><use xlink:href="#i" transform="matrix(1,0,0,1,524.0664812239222,580.7894736842105) translate(35.074999999999996 38.80625)"/><path d="M935.2 513.23v43.06" stroke="#000" stroke-width="2" fill="none"/><path d="M936.2 513.25h-2v-1.02h2z"/><path d="M935.2 571.55l-4.64-14.26h9.28z" stroke="#000" stroke-width="2"/><path d="M935.2 513.23v30.28H595.56v12.8" stroke="#000" stroke-width="2" fill="none"/><path d="M936.2 513.25h-2v-1.02h2z"/><path d="M595.56 571.55l-4.63-14.26h9.27z" stroke="#000" stroke-width="2"/><path d="M935.2 513.23v30.28h339.64v12.8" stroke="#000" stroke-width="2" fill="none"/><path d="M936.2 513.25h-2v-1.02h2z"/><path d="M1274.84 571.55l-4.64-14.26h9.27z" stroke="#000" stroke-width="2"/><path d="M385.2 721.05h114.74v48.42H385.2z" stroke="#834187" stroke-width="2" fill="#b391b5"/><use xlink:href="#j" transform="matrix(1,0,0,1,390.20000000000005,726.0526315789474) translate(0.07499999999999574 24.15)"/><use xlink:href="#k" transform="matrix(1,0,0,1,390.20000000000005,726.0526315789474) translate(53.025 24.15)"/><path d="M538.2 721.05h114.73v48.42H538.2z" stroke="#834187" stroke-width="2" fill="#b391b5"/><use xlink:href="#l" transform="matrix(1,0,0,1,543.1902642559111,726.0526315789474) translate(42.5 24.15)"/><path d="M691.18 721.05h114.74v48.42H691.18z" stroke="#834187" stroke-width="2" fill="#b391b5"/><use xlink:href="#j" transform="matrix(1,0,0,1,696.180528511822,726.0526315789474) translate(0.07499999999999574 24.15)"/><use xlink:href="#k" transform="matrix(1,0,0,1,696.180528511822,726.0526315789474) translate(53.025 24.15)"/><path d="M595.56 658.5v30.27h-153v12.78" stroke="#000" stroke-width="2" fill="none"/><path d="M596.56 658.52h-2v-1.03h2z"/><path d="M442.57 716.82l-4.63-14.27h9.27z" stroke="#000" stroke-width="2"/><path d="M595.56 658.5v43.05" stroke="#000" stroke-width="2" fill="none"/><path d="M596.56 658.52h-2v-1.03h2z"/><path d="M595.56 716.82l-4.63-14.27h9.27z" stroke="#000" stroke-width="2"/><path d="M595.56 658.5v30.27h153v12.78" stroke="#000" stroke-width="2" fill="none"/><path d="M596.56 658.52h-2v-1.03h2z"/><path d="M748.55 716.82l-4.63-14.27h9.27z" stroke="#000" stroke-width="2"/><path d="M877.83 721.05h114.74v48.42H877.83z" stroke="#834187" stroke-width="2" fill="#b391b5"/><use xlink:href="#l" transform="matrix(1,0,0,1,882.8286509040335,726.0526315789474) translate(42.5 24.15)"/><path d="M935.2 658.5v43.05" stroke="#000" stroke-width="2" fill="none"/><path d="M936.2 658.52h-2v-1.03h2z"/><path d="M935.2 716.82l-4.64-14.27h9.28z" stroke="#000" stroke-width="2"/><path d="M1064.48 721.05h114.74v48.42h-114.74z" stroke="#834187" stroke-width="2" fill="#b391b5"/><use xlink:href="#j" transform="matrix(1,0,0,1,1069.4767732962448,726.0526315789474) translate(0.07499999999999574 24.15)"/><use xlink:href="#k" transform="matrix(1,0,0,1,1069.4767732962448,726.0526315789474) translate(53.025 24.15)"/><path d="M1217.47 721.05h114.74v48.42h-114.73z" stroke="#834187" stroke-width="2" fill="#b391b5"/><use xlink:href="#l" transform="matrix(1,0,0,1,1222.4670375521557,726.0526315789474) translate(42.5 24.15)"/><path d="M1370.46 721.05h114.74v48.42h-114.74z" stroke="#834187" stroke-width="2" fill="#b391b5"/><use xlink:href="#j" transform="matrix(1,0,0,1,1375.4573018080666,726.0526315789474) translate(0.07499999999999574 24.15)"/><use xlink:href="#k" transform="matrix(1,0,0,1,1375.4573018080666,726.0526315789474) translate(53.025 24.15)"/><path d="M858.7 834.04h153v80.7h-153z" stroke="#834187" stroke-width="2" fill="#b391b5"/><use xlink:href="#m" transform="matrix(1,0,0,1,863.7048678720446,839.0350877192983) translate(43.025 38.80625)"/><path d="M442.57 771.47v30.28H935.2v12.78" stroke="#000" stroke-width="2" fill="none"/><path d="M443.57 771.5h-2v-1.03h2z"/><path d="M935.2 829.8l-4.64-14.27h9.28z" stroke="#000" stroke-width="2"/><path d="M595.56 771.47v30.28H935.2v12.78" stroke="#000" stroke-width="2" fill="none"/><path d="M596.56 771.5h-2v-1.03h2z"/><path d="M935.2 829.8l-4.64-14.27h9.28z" stroke="#000" stroke-width="2"/><path d="M748.55 771.47v30.28H935.2v12.78" stroke="#000" stroke-width="2" fill="none"/><path d="M749.55 771.5h-2v-1.03h2z"/><path d="M935.2 829.8l-4.64-14.27h9.28z" stroke="#000" stroke-width="2"/><path d="M935.2 771.47v43.06" stroke="#000" stroke-width="2" fill="none"/><path d="M936.2 771.5h-2v-1.03h2z"/><path d="M935.2 829.8l-4.64-14.27h9.28z" stroke="#000" stroke-width="2"/><path d="M1121.85 771.47v30.28H935.2v12.78" stroke="#000" stroke-width="2" fill="none"/><path d="M1122.85 771.5h-2v-1.03h2z"/><path d="M935.2 829.8l-4.64-14.27h9.28z" stroke="#000" stroke-width="2"/><path d="M1274.84 771.47v30.28H935.2v12.78" stroke="#000" stroke-width="2" fill="none"/><path d="M1275.84 771.5h-2v-1.03h2z"/><path d="M935.2 829.8l-4.64-14.27h9.28z" stroke="#000" stroke-width="2"/><path d="M1427.83 771.47v30.28H935.2v12.78" stroke="#000" stroke-width="2" fill="none"/><path d="M1428.83 771.5h-2v-1.03h2z"/><path d="M935.2 829.8l-4.64-14.27h9.28z" stroke="#000" stroke-width="2"/><path d="M858.7 979.3h153v80.7h-153z" stroke="#0c7cba" stroke-width="2" fill="#83bbe5"/><use xlink:href="#n" transform="matrix(1,0,0,1,863.7048678720446,984.2982456140351) translate(23.574999999999996 38.80625)"/><use xlink:href="#o" transform="matrix(1,0,0,1,863.7048678720446,984.2982456140351) translate(75.525 38.80625)"/><path d="M935.2 916.74v43.06" stroke="#000" stroke-width="2" fill="none"/><path d="M936.2 916.76h-2v-1.02h2z"/><path d="M935.2 975.06l-4.64-14.26h9.28z" stroke="#000" stroke-width="2"/><path d="M1274.84 658.5v43.05" stroke="#000" stroke-width="2" fill="none"/><path d="M1275.84 658.52h-2v-1.03h2z"/><path d="M1274.84 716.82l-4.64-14.27h9.27z" stroke="#000" stroke-width="2"/><path d="M1274.84 658.5v30.27h-153v12.78" stroke="#000" stroke-width="2" fill="none"/><path d="M1275.84 658.52h-2v-1.03h2z"/><path d="M1121.85 716.82l-4.64-14.27h9.28z" stroke="#000" stroke-width="2"/><path d="M1274.84 658.5v30.27h153v12.78" stroke="#000" stroke-width="2" fill="none"/><path d="M1275.84 658.52h-2v-1.03h2z"/><path d="M1427.83 716.82l-4.64-14.27h9.26z" stroke="#000" stroke-width="2"/><path d="M815.2 40h240v60h-240z" stroke="#000" stroke-opacity="0" stroke-width="2" fill="#fff" fill-opacity="0"/><g><use xlink:href="#p" transform="matrix(1,0,0,1,820.1999999999999,45) translate(29.025000000000006 30.025)"/><use xlink:href="#q" transform="matrix(1,0,0,1,820.1999999999999,45) translate(44.025000000000006 30.025)"/><use xlink:href="#r" transform="matrix(1,0,0,1,820.1999999999999,45) translate(87.025 30.025)"/><use xlink:href="#s" transform="matrix(1,0,0,1,820.1999999999999,45) translate(142.97500000000002 30.025)"/></g><path d="M935.2 101v19.5" stroke="#000" stroke-width="2" fill="none"/><path d="M936.2 101.03h-2V100h2z"/><path d="M935.2 135.76l-4.64-14.26h9.28z" stroke="#000" stroke-width="2"/><defs><path d="M33 0v-248h34V0H33" id="t"/><path d="M117-194c89-4 53 116 60 194h-32v-121c0-31-8-49-39-48C34-167 62-67 57 0H25l-1-190h30c1 10-1 24 2 32 11-22 29-35 61-36" id="u"/><path d="M177-190C167-65 218 103 67 71c-23-6-38-20-44-43l32-5c15 47 100 32 89-28v-30C133-14 115 1 83 1 29 1 15-40 15-95c0-56 16-97 71-98 29-1 48 16 59 35 1-10 0-23 2-32h30zM94-22c36 0 50-32 50-73 0-42-14-75-50-75-39 0-46 34-46 75s6 73 46 73" id="v"/><path d="M114-163C36-179 61-72 57 0H25l-1-190h30c1 12-1 29 2 39 6-27 23-49 58-41v29" id="w"/><path d="M100-194c63 0 86 42 84 106H49c0 40 14 67 53 68 26 1 43-12 49-29l28 8c-11 28-37 45-77 45C44 4 14-33 15-96c1-61 26-98 85-98zm52 81c6-60-76-77-97-28-3 7-6 17-6 28h103" id="x"/><path d="M85-194c31 0 48 13 60 33l-1-100h32l1 261h-30c-2-10 0-23-3-31C134-8 116 4 85 4 32 4 16-35 15-94c0-66 23-100 70-100zm9 24c-40 0-46 34-46 75 0 40 6 74 45 74 42 0 51-32 51-76 0-42-9-74-50-73" id="y"/><path d="M24-231v-30h32v30H24zM24 0v-190h32V0H24" id="z"/><path d="M59-47c-2 24 18 29 38 22v24C64 9 27 4 27-40v-127H5v-23h24l9-43h21v43h35v23H59v120" id="A"/><g id="a"><use transform="matrix(0.05,0,0,0.05,0,0)" xlink:href="#t"/><use transform="matrix(0.05,0,0,0.05,5,0)" xlink:href="#u"/><use transform="matrix(0.05,0,0,0.05,15,0)" xlink:href="#v"/><use transform="matrix(0.05,0,0,0.05,25,0)" xlink:href="#w"/><use transform="matrix(0.05,0,0,0.05,30.950000000000003,0)" xlink:href="#x"/><use transform="matrix(0.05,0,0,0.05,40.95,0)" xlink:href="#y"/><use transform="matrix(0.05,0,0,0.05,50.95,0)" xlink:href="#z"/><use transform="matrix(0.05,0,0,0.05,54.900000000000006,0)" xlink:href="#x"/><use transform="matrix(0.05,0,0,0.05,64.9,0)" xlink:href="#u"/><use transform="matrix(0.05,0,0,0.05,74.9,0)" xlink:href="#A"/></g><path d="M115-194c55 1 70 41 70 98S169 2 115 4C84 4 66-9 55-30l1 105H24l-1-265h31l2 30c10-21 28-34 59-34zm-8 174c40 0 45-34 45-75s-6-73-45-74c-42 0-51 32-51 76 0 43 10 73 51 73" id="B"/><path d="M141-36C126-15 110 5 73 4 37 3 15-17 15-53c-1-64 63-63 125-63 3-35-9-54-41-54-24 1-41 7-42 31l-33-3c5-37 33-52 76-52 45 0 72 20 72 64v82c-1 20 7 32 28 27v20c-31 9-61-2-59-35zM48-53c0 20 12 33 32 33 41-3 63-29 60-74-43 2-92-5-92 41" id="C"/><path d="M135-143c-3-34-86-38-87 0 15 53 115 12 119 90S17 21 10-45l28-5c4 36 97 45 98 0-10-56-113-15-118-90-4-57 82-63 122-42 12 7 21 19 24 35" id="D"/><g id="b"><use transform="matrix(0.05,0,0,0.05,0,0)" xlink:href="#B"/><use transform="matrix(0.05,0,0,0.05,10,0)" xlink:href="#C"/><use transform="matrix(0.05,0,0,0.05,20,0)" xlink:href="#w"/><use transform="matrix(0.05,0,0,0.05,25.950000000000003,0)" xlink:href="#D"/><use transform="matrix(0.05,0,0,0.05,34.95,0)" xlink:href="#x"/><use transform="matrix(0.05,0,0,0.05,44.95,0)" xlink:href="#w"/></g><path d="M33 0v-38h34V0H33" id="E"/><g id="c"><use transform="matrix(0.05,0,0,0.05,0,0)" xlink:href="#E"/><use transform="matrix(0.05,0,0,0.05,5,0)" xlink:href="#E"/><use transform="matrix(0.05,0,0,0.05,10,0)" xlink:href="#E"/></g><path d="M185-189c-5-48-123-54-124 2 14 75 158 14 163 119 3 78-121 87-175 55-17-10-28-26-33-46l33-7c5 56 141 63 141-1 0-78-155-14-162-118-5-82 145-84 179-34 5 7 8 16 11 25" id="F"/><path d="M9 0v-24l116-142H16v-24h144v24L44-24h123V0H9" id="G"/><path d="M100-194c62-1 85 37 85 99 1 63-27 99-86 99S16-35 15-95c0-66 28-99 85-99zM99-20c44 1 53-31 53-75 0-43-8-75-51-75s-53 32-53 75 10 74 51 75" id="H"/><g id="d"><use transform="matrix(0.05,0,0,0.05,0,0)" xlink:href="#F"/><use transform="matrix(0.05,0,0,0.05,12,0)" xlink:href="#C"/><use transform="matrix(0.05,0,0,0.05,22,0)" xlink:href="#u"/><use transform="matrix(0.05,0,0,0.05,32,0)" xlink:href="#z"/><use transform="matrix(0.05,0,0,0.05,35.95,0)" xlink:href="#A"/><use transform="matrix(0.05,0,0,0.05,40.95,0)" xlink:href="#z"/><use transform="matrix(0.05,0,0,0.05,44.900000000000006,0)" xlink:href="#G"/><use transform="matrix(0.05,0,0,0.05,53.900000000000006,0)" xlink:href="#C"/><use transform="matrix(0.05,0,0,0.05,63.900000000000006,0)" xlink:href="#A"/><use transform="matrix(0.05,0,0,0.05,68.9,0)" xlink:href="#z"/><use transform="matrix(0.05,0,0,0.05,72.85000000000001,0)" xlink:href="#H"/><use transform="matrix(0.05,0,0,0.05,82.85000000000001,0)" xlink:href="#u"/></g><path d="M84 4C-5 8 30-112 23-190h32v120c0 31 7 50 39 49 72-2 45-101 50-169h31l1 190h-30c-1-10 1-25-2-33-11 22-28 36-60 37" id="I"/><path d="M24 0v-261h32V0H24" id="J"/><g id="e"><use transform="matrix(0.05,0,0,0.05,0,0)" xlink:href="#w"/><use transform="matrix(0.05,0,0,0.05,5.95,0)" xlink:href="#I"/><use transform="matrix(0.05,0,0,0.05,15.949999999999998,0)" xlink:href="#J"/><use transform="matrix(0.05,0,0,0.05,19.9,0)" xlink:href="#x"/></g><path d="M30-248c87 1 191-15 191 75 0 78-77 80-158 76V0H30v-248zm33 125c57 0 124 11 124-50 0-59-68-47-124-48v98" id="K"/><g id="f"><use transform="matrix(0.05,0,0,0.05,0,0)" xlink:href="#K"/><use transform="matrix(0.05,0,0,0.05,12,0)" xlink:href="#C"/><use transform="matrix(0.05,0,0,0.05,22,0)" xlink:href="#w"/><use transform="matrix(0.05,0,0,0.05,27.950000000000003,0)" xlink:href="#D"/><use transform="matrix(0.05,0,0,0.05,36.95,0)" xlink:href="#x"/><use transform="matrix(0.05,0,0,0.05,46.95,0)" xlink:href="#w"/></g><path d="M179-190L93 31C79 59 56 82 12 73V49c39 6 53-20 64-50L1-190h34L92-34l54-156h33" id="L"/><g id="g"><use transform="matrix(0.05,0,0,0.05,0,0)" xlink:href="#D"/><use transform="matrix(0.05,0,0,0.05,9,0)" xlink:href="#A"/><use transform="matrix(0.05,0,0,0.05,14,0)" xlink:href="#w"/><use transform="matrix(0.05,0,0,0.05,19.95,0)" xlink:href="#C"/><use transform="matrix(0.05,0,0,0.05,29.950000000000003,0)" xlink:href="#A"/><use transform="matrix(0.05,0,0,0.05,34.95,0)" xlink:href="#x"/><use transform="matrix(0.05,0,0,0.05,44.95,0)" xlink:href="#v"/><use transform="matrix(0.05,0,0,0.05,54.95,0)" xlink:href="#L"/></g><path d="M127-220V0H93v-220H8v-28h204v28h-85" id="M"/><path d="M210-169c-67 3-38 105-44 169h-31v-121c0-29-5-50-35-48C34-165 62-65 56 0H25l-1-190h30c1 10-1 24 2 32 10-44 99-50 107 0 11-21 27-35 58-36 85-2 47 119 55 194h-31v-121c0-29-5-49-35-48" id="N"/><g id="h"><use transform="matrix(0.05,0,0,0.05,0,0)" xlink:href="#M"/><use transform="matrix(0.05,0,0,0.05,8.950000000000001,0)" xlink:href="#x"/><use transform="matrix(0.05,0,0,0.05,18.950000000000003,0)" xlink:href="#N"/><use transform="matrix(0.05,0,0,0.05,33.900000000000006,0)" xlink:href="#B"/><use transform="matrix(0.05,0,0,0.05,43.900000000000006,0)" xlink:href="#J"/><use transform="matrix(0.05,0,0,0.05,47.85000000000001,0)" xlink:href="#C"/><use transform="matrix(0.05,0,0,0.05,57.85,0)" xlink:href="#A"/><use transform="matrix(0.05,0,0,0.05,62.85,0)" xlink:href="#x"/></g><g id="i"><use transform="matrix(0.05,0,0,0.05,0,0)" xlink:href="#M"/><use transform="matrix(0.05,0,0,0.05,8.950000000000001,0)" xlink:href="#x"/><use transform="matrix(0.05,0,0,0.05,18.950000000000003,0)" xlink:href="#N"/><use transform="matrix(0.05,0,0,0.05,33.900000000000006,0)" xlink:href="#B"/><use transform="matrix(0.05,0,0,0.05,43.900000000000006,0)" xlink:href="#J"/><use transform="matrix(0.05,0,0,0.05,47.85000000000001,0)" xlink:href="#C"/><use transform="matrix(0.05,0,0,0.05,57.85,0)" xlink:href="#A"/><use transform="matrix(0.05,0,0,0.05,62.85,0)" xlink:href="#x"/></g><path d="M143 0L79-87 56-68V0H24v-261h32v163l83-92h37l-77 82L181 0h-38" id="O"/><g id="j"><use transform="matrix(0.05,0,0,0.05,0,0)" xlink:href="#M"/><use transform="matrix(0.05,0,0,0.05,8.950000000000001,0)" xlink:href="#H"/><use transform="matrix(0.05,0,0,0.05,18.950000000000003,0)" xlink:href="#O"/><use transform="matrix(0.05,0,0,0.05,27.950000000000003,0)" xlink:href="#x"/><use transform="matrix(0.05,0,0,0.05,37.95,0)" xlink:href="#u"/></g><g id="k"><use transform="matrix(0.05,0,0,0.05,0,0)" xlink:href="#w"/><use transform="matrix(0.05,0,0,0.05,5.95,0)" xlink:href="#x"/><use transform="matrix(0.05,0,0,0.05,15.949999999999998,0)" xlink:href="#C"/><use transform="matrix(0.05,0,0,0.05,25.950000000000003,0)" xlink:href="#y"/><use transform="matrix(0.05,0,0,0.05,35.95,0)" xlink:href="#x"/><use transform="matrix(0.05,0,0,0.05,45.95,0)" xlink:href="#w"/></g><g id="l"><use transform="matrix(0.05,0,0,0.05,0,0)" xlink:href="#E"/><use transform="matrix(0.05,0,0,0.05,5,0)" xlink:href="#E"/><use transform="matrix(0.05,0,0,0.05,10,0)" xlink:href="#E"/><use transform="matrix(0.05,0,0,0.05,15,0)" xlink:href="#E"/></g><g id="m"><use transform="matrix(0.05,0,0,0.05,0,0)" xlink:href="#M"/><use transform="matrix(0.05,0,0,0.05,8.950000000000001,0)" xlink:href="#H"/><use transform="matrix(0.05,0,0,0.05,18.950000000000003,0)" xlink:href="#O"/><use transform="matrix(0.05,0,0,0.05,27.950000000000003,0)" xlink:href="#x"/><use transform="matrix(0.05,0,0,0.05,37.95,0)" xlink:href="#u"/><use transform="matrix(0.05,0,0,0.05,47.95,0)" xlink:href="#D"/></g><g id="n"><use transform="matrix(0.05,0,0,0.05,0,0)" xlink:href="#K"/><use transform="matrix(0.05,0,0,0.05,12,0)" xlink:href="#C"/><use transform="matrix(0.05,0,0,0.05,22,0)" xlink:href="#w"/><use transform="matrix(0.05,0,0,0.05,27.950000000000003,0)" xlink:href="#D"/><use transform="matrix(0.05,0,0,0.05,36.95,0)" xlink:href="#x"/></g><g id="o"><use transform="matrix(0.05,0,0,0.05,0,0)" xlink:href="#w"/><use transform="matrix(0.05,0,0,0.05,5.95,0)" xlink:href="#x"/><use transform="matrix(0.05,0,0,0.05,15.949999999999998,0)" xlink:href="#D"/><use transform="matrix(0.05,0,0,0.05,24.95,0)" xlink:href="#I"/><use transform="matrix(0.05,0,0,0.05,34.95,0)" xlink:href="#J"/><use transform="matrix(0.05,0,0,0.05,38.900000000000006,0)" xlink:href="#A"/></g><path d="M101-251c82-7 93 87 43 132L82-64C71-53 59-42 53-27h129V0H18c2-99 128-94 128-182 0-28-16-43-45-43s-46 15-49 41l-32-3c6-41 34-60 81-64" id="P"/><use transform="matrix(0.05,0,0,0.05,0,0)" xlink:href="#P" id="p"/><path d="M96-169c-40 0-48 33-48 73s9 75 48 75c24 0 41-14 43-38l32 2c-6 37-31 61-74 61-59 0-76-41-82-99-10-93 101-131 147-64 4 7 5 14 7 22l-32 3c-4-21-16-35-41-35" id="Q"/><g id="q"><use transform="matrix(0.05,0,0,0.05,0,0)" xlink:href="#Q"/><use transform="matrix(0.05,0,0,0.05,9,0)" xlink:href="#I"/><use transform="matrix(0.05,0,0,0.05,19,0)" xlink:href="#B"/><use transform="matrix(0.05,0,0,0.05,29,0)" xlink:href="#D"/></g><g id="r"><use transform="matrix(0.05,0,0,0.05,0,0)" xlink:href="#v"/><use transform="matrix(0.05,0,0,0.05,10,0)" xlink:href="#w"/><use transform="matrix(0.05,0,0,0.05,15.949999999999998,0)" xlink:href="#C"/><use transform="matrix(0.05,0,0,0.05,25.950000000000003,0)" xlink:href="#A"/><use transform="matrix(0.05,0,0,0.05,30.950000000000003,0)" xlink:href="#x"/><use transform="matrix(0.05,0,0,0.05,40.95,0)" xlink:href="#y"/></g><path d="M106-169C34-169 62-67 57 0H25v-261h32l-1 103c12-21 28-36 61-36 89 0 53 116 60 194h-32v-121c2-32-8-49-39-48" id="R"/><g id="s"><use transform="matrix(0.05,0,0,0.05,0,0)" xlink:href="#Q"/><use transform="matrix(0.05,0,0,0.05,9,0)" xlink:href="#R"/><use transform="matrix(0.05,0,0,0.05,19,0)" xlink:href="#x"/><use transform="matrix(0.05,0,0,0.05,29,0)" xlink:href="#x"/><use transform="matrix(0.05,0,0,0.05,39,0)" xlink:href="#D"/><use transform="matrix(0.05,0,0,0.05,48,0)" xlink:href="#x"/></g></defs></g></svg>